<svg width="20" height="20" viewBox="0 0 20 20" fill="none" xmlns="http://www.w3.org/2000/svg">
<path d="M15.5558 9.2196L6.65555 0.31951C6.4497 0.113495 6.1749 0 5.8819 0C5.58889 0 5.3141 0.113495 5.10824 0.31951L4.4528 0.974789C4.0263 1.40178 4.0263 2.09576 4.4528 2.52209L11.9266 9.99585L4.44451 17.4779C4.23866 17.6839 4.125 17.9586 4.125 18.2514C4.125 18.5446 4.23866 18.8192 4.44451 19.0254L5.09995 19.6805C5.30597 19.8865 5.5806 20 5.8736 20C6.16661 20 6.4414 19.8865 6.64726 19.6805L15.5558 10.7723C15.7621 10.5656 15.8755 10.2897 15.8748 9.99634C15.8755 9.70187 15.7621 9.4261 15.5558 9.2196Z" fill="#DDDDDE"/>
</svg>
