<svg width="142" height="126" viewBox="0 0 142 126" fill="none" xmlns="http://www.w3.org/2000/svg">
<g clip-path="url(#clip0_234_287)">
<path d="M27.7633 125.497C29.1896 124.295 30.0559 122.396 29.8287 120.547C29.6015 118.698 28.1943 116.999 26.369 116.606C24.5436 116.214 22.4628 117.301 21.9084 119.079C21.6033 115.65 21.2517 112.078 19.4239 109.158C17.769 106.514 14.9026 104.622 11.796 104.283C8.68943 103.945 5.41862 105.223 3.48117 107.669C1.54372 110.114 1.06934 113.67 2.42628 116.478C3.42589 118.546 5.26752 120.085 7.1971 121.338C13.3531 125.333 20.9896 126.683 28.2559 125.616L27.7633 125.497Z" fill="#F2F2F2"/>
<path d="M6.55299 105.294C9.11629 107.376 11.4678 109.705 13.5736 112.247C15.6798 114.787 17.534 117.524 19.1103 120.42C19.9913 122.045 20.7828 123.717 21.4812 125.428C21.6236 125.776 21.057 125.927 20.9162 125.583C19.6792 122.567 18.1488 119.679 16.347 116.96C14.5539 114.252 12.5017 111.723 10.219 109.41C8.92798 108.102 7.5658 106.866 6.13867 105.707C5.84615 105.47 6.26289 105.058 6.55299 105.294H6.55299Z" fill="white"/>
<path d="M129.871 52.133H110.36C110.066 52.1326 109.784 52.0159 109.576 51.8083C109.367 51.6007 109.25 51.3192 109.25 51.0256V48.6907C109.25 48.3971 109.367 48.1156 109.576 47.908C109.784 47.7004 110.066 47.5836 110.36 47.5833H129.871C130.166 47.5836 130.448 47.7004 130.656 47.908C130.864 48.1156 130.981 48.3971 130.982 48.6907V51.0256C130.981 51.3192 130.864 51.6007 130.656 51.8083C130.448 52.0159 130.166 52.1326 129.871 52.133Z" fill="#F5C4CB"/>
<path d="M127.238 48.5626L118.923 41.0846C118.744 40.9234 118.514 40.8301 118.273 40.8208C118.032 40.8116 117.795 40.8871 117.604 41.0341L99.4066 47.0269C99.1472 47.1127 98.9324 47.2976 98.8095 47.5411C98.6866 47.7846 98.6655 48.0668 98.7509 48.3258L99.4848 50.543C99.5271 50.6714 99.5943 50.7902 99.6827 50.8926C99.7711 50.995 99.8788 51.079 99.9998 51.1397C100.121 51.2005 100.253 51.2368 100.388 51.2467C100.523 51.2565 100.659 51.2396 100.787 51.197L117.48 45.6996L124.29 51.8242C124.478 51.9948 124.724 52.0892 124.979 52.0888C124.997 52.0888 125.015 52.0883 125.033 52.0873C125.169 52.0808 125.301 52.0475 125.424 51.9894C125.546 51.9313 125.655 51.8496 125.746 51.749L127.313 50.0149C127.496 49.8122 127.591 49.5455 127.577 49.2732C127.563 49.001 127.441 48.7454 127.238 48.5626Z" fill="#F5C4CB"/>
<path d="M35.1665 104.481C34.9142 104.481 34.6723 104.582 34.4939 104.76C34.3155 104.937 34.2151 105.179 34.2148 105.43V124.891C34.2151 125.143 34.3155 125.384 34.4939 125.562C34.6723 125.74 34.9142 125.84 35.1665 125.84H37.5075C37.7598 125.84 38.0017 125.74 38.1801 125.562C38.3585 125.384 38.4589 125.143 38.4592 124.891V105.43C38.4589 105.179 38.3585 104.937 38.1801 104.76C38.0017 104.582 37.7598 104.481 37.5075 104.481H35.1665Z" fill="#F5C4CB"/>
<path d="M42.4512 125.999H40.1103C39.8159 125.998 39.5337 125.882 39.3256 125.674C39.1174 125.466 39.0003 125.185 39 124.891V105.43C39.0003 105.137 39.1174 104.855 39.3256 104.648C39.5337 104.44 39.8159 104.323 40.1103 104.323H42.4512C42.7456 104.323 43.0278 104.44 43.2359 104.648C43.4441 104.855 43.5612 105.137 43.5615 105.43V124.891C43.5612 125.185 43.4441 125.466 43.2359 125.674C43.0278 125.882 42.7456 125.998 42.4512 125.999Z" fill="#F5C4CB"/>
<path d="M46.2858 106.939C46.2858 106.939 47.1703 114.872 38.2414 114.602C29.3124 114.333 32.7864 106.538 32.7864 106.538C32.7864 106.538 34.6523 105.076 39.3691 106.49C44.0858 107.905 46.2858 106.939 46.2858 106.939Z" fill="#493E7E"/>
<path d="M42.4445 93.4394C41.954 93.4402 41.4764 93.2834 41.0824 92.992C40.6884 92.7007 40.3991 92.2904 40.2574 91.8221C40.1157 91.3538 40.1292 90.8524 40.2958 90.3923C40.4624 89.9322 40.7733 89.538 41.1823 89.2681L56.4766 79.1718C56.5982 79.0915 56.7344 79.0359 56.8775 79.0081C57.0207 78.9804 57.1679 78.981 57.3108 79.01C57.4536 79.039 57.5894 79.0958 57.7103 79.1772C57.8311 79.2585 57.9347 79.3628 58.0152 79.4841L59.3072 81.4311C59.4694 81.6762 59.5275 81.9753 59.4688 82.263C59.4101 82.5507 59.2394 82.8035 58.9941 82.9658L43.6999 93.0622C43.3278 93.3084 42.891 93.4396 42.4445 93.4394Z" fill="#F5C4CB"/>
<path d="M39.6711 84.0925C44.1385 84.0925 47.7601 80.4802 47.7601 76.0243C47.7601 71.5683 44.1385 67.9561 39.6711 67.9561C35.2036 67.9561 31.582 71.5683 31.582 76.0243C31.582 80.4802 35.2036 84.0925 39.6711 84.0925Z" fill="#F5C4CB"/>
<path d="M39.6768 79.411C40.2011 79.3965 40.8537 79.3784 41.3565 79.0121C41.5062 78.8985 41.6292 78.7537 41.7168 78.5877C41.8045 78.4218 41.8547 78.2387 41.864 78.0514C41.8731 77.9182 41.8512 77.7848 41.8 77.6615C41.7488 77.5381 41.6697 77.4283 41.5689 77.3405C41.3064 77.1192 40.9229 77.0673 40.5097 77.1884L40.9378 74.0679L40.6236 74.0249L40.1203 77.6936L40.3827 77.5734C40.687 77.4342 41.1046 77.3634 41.3642 77.5822C41.4279 77.6394 41.4776 77.7104 41.5093 77.7899C41.541 77.8693 41.5539 77.955 41.547 78.0402C41.5393 78.1797 41.5016 78.3158 41.4364 78.4394C41.3713 78.5631 41.2802 78.6712 41.1693 78.7565C40.7781 79.0416 40.2579 79.0783 39.668 79.0948L39.6768 79.411Z" fill="#5E50A1"/>
<path d="M44.2007 74.3372H42.4922V74.6536H44.2007V74.3372Z" fill="#5E50A1"/>
<path d="M38.81 74.3372H37.1016V74.6536H38.81V74.3372Z" fill="#5E50A1"/>
<path d="M31.4953 108.611C31.4953 108.611 30.7969 84.9258 40.5746 86.5512C50.3524 88.1766 46.2783 111.049 46.2783 111.049C46.2783 111.049 44.1831 115.228 39.0614 110.584C33.9397 105.94 31.4953 108.611 31.4953 108.611Z" fill="#5E50A1"/>
<path d="M35.111 69.21C36.6849 68.1441 38.6714 68.8682 40.2008 69.6289C41.686 70.3677 43.3597 71.3077 45.0403 70.5961C45.6966 70.3182 46.2301 69.7746 46.3228 69.0473C46.4332 68.1809 45.908 67.3698 45.3238 66.7807C44.6889 66.1747 43.9492 65.6885 43.1405 65.3455C42.3477 64.9897 41.5126 64.7364 40.6554 64.5918C38.9575 64.2992 37.214 64.4155 35.5703 64.9309C33.9265 65.4464 32.43 66.3461 31.2054 67.5551C30.0207 68.7603 29.1054 70.2021 28.5197 71.7855C27.9339 73.369 27.6911 75.0583 27.8071 76.7421C27.9408 78.5369 28.5155 80.3671 29.6685 81.776C30.7503 83.098 32.3701 84.0274 34.0989 84.1049C34.5225 84.1247 34.947 84.0903 35.3618 84.0026C35.6605 83.9391 35.7881 84.3965 35.4883 84.4603C33.6877 84.8432 31.8224 84.2742 30.3943 83.1538C28.8909 81.9743 27.9685 80.1887 27.5641 78.3489C26.7902 74.8282 27.7597 71.0393 29.9815 68.2207C31.0787 66.8167 32.4999 65.6982 34.124 64.9603C35.8014 64.2133 37.6338 63.8779 39.4678 63.9822C41.2967 64.0739 43.0711 64.6346 44.6192 65.6103C46.004 66.5029 47.5646 68.3951 46.4353 70.0692C46.013 70.6953 45.3119 71.0766 44.584 71.2333C43.7488 71.3954 42.8847 71.3204 42.0901 71.0167C40.2809 70.3795 38.6077 68.9556 36.5827 69.1714C36.1414 69.2171 35.7182 69.3712 35.3512 69.6198C35.0972 69.7919 34.8588 69.3808 35.111 69.21H35.111Z" fill="#5E50A1"/>
<path d="M104.219 32.4626C103.852 32.2278 103.564 31.89 103.39 31.4918C103.216 31.0937 103.165 30.653 103.242 30.2256C103.319 29.7982 103.522 29.4033 103.824 29.0907C104.126 28.7781 104.515 28.562 104.94 28.4696L122.861 24.5785C123.128 24.5208 123.407 24.5711 123.637 24.7185C123.867 24.8659 124.029 25.0982 124.088 25.3645L124.01 25.3814L124.088 25.3645L124.586 27.6461C124.614 27.778 124.617 27.9144 124.593 28.0473C124.569 28.1802 124.519 28.307 124.446 28.4206C124.372 28.5343 124.278 28.6324 124.166 28.7094C124.055 28.7864 123.93 28.8409 123.798 28.8696L105.877 32.7607C105.799 32.7776 105.721 32.7903 105.642 32.7989C105.143 32.8531 104.64 32.7344 104.219 32.4626Z" fill="#F5C4CB"/>
<path d="M102.755 31.1729C102.745 31.1305 102.735 31.0876 102.727 31.0443C102.58 30.2701 102.849 29.4551 103.485 28.7491C104.176 28.016 105.077 27.5149 106.066 27.315L114.236 25.532C114.371 25.5027 114.51 25.5005 114.645 25.5257C114.781 25.5509 114.91 25.6029 115.025 25.6787C115.14 25.7544 115.238 25.8524 115.315 25.9668C115.391 26.0812 115.444 26.2097 115.469 26.3448L116.182 30.09C116.234 30.3532 116.179 30.626 116.031 30.8498C115.883 31.0735 115.653 31.2303 115.39 31.2863L107.168 33.0803C106.797 33.1619 106.419 33.2035 106.039 33.2042C104.419 33.2042 103.071 32.4173 102.755 31.1729Z" fill="#5E50A1"/>
<path d="M104.183 22.7927C108.65 22.7927 112.272 19.1804 112.272 14.7245C112.272 10.2685 108.65 6.65625 104.183 6.65625C99.7153 6.65625 96.0938 10.2685 96.0938 14.7245C96.0938 19.1804 99.7153 22.7927 104.183 22.7927Z" fill="#F5C4CB"/>
<path d="M111.009 17.6369C111.533 17.6223 112.186 17.6042 112.688 17.2379C112.838 17.1243 112.961 16.9795 113.049 16.8136C113.137 16.6476 113.187 16.4645 113.196 16.2772C113.205 16.144 113.183 16.0106 113.132 15.8873C113.081 15.764 113.002 15.6541 112.901 15.5664C112.638 15.3451 112.255 15.2931 111.842 15.4143L112.27 12.2937L111.956 12.2507L111.452 15.9194L111.715 15.7993C112.019 15.6601 112.437 15.5892 112.696 15.808C112.76 15.8652 112.81 15.9363 112.841 16.0157C112.873 16.0952 112.886 16.1808 112.879 16.2661C112.871 16.4055 112.834 16.5417 112.768 16.6653C112.703 16.7889 112.612 16.897 112.501 16.9824C112.11 17.2674 111.59 17.3042 111 17.3206L111.009 17.6369Z" fill="#5E50A1"/>
<path d="M110.134 12.5632H108.426V12.8796H110.134V12.5632Z" fill="#5E50A1"/>
<path d="M103.612 6.63263C103.552 5.6789 103.288 4.74905 102.837 3.90605C102.386 3.06306 101.758 2.32659 100.997 1.74653C100.21 1.16552 99.3027 0.768823 98.3412 0.585921C97.3797 0.403018 96.3892 0.438617 95.4434 0.690073C94.5037 0.933632 93.6317 1.3868 92.8931 2.0154C92.1545 2.64401 91.5686 3.43165 91.1796 4.31896C90.7881 5.19966 90.5927 6.1546 90.607 7.1179C90.6502 8.16546 90.9111 9.19264 91.3732 10.1343C91.8502 11.1709 92.4518 12.1433 92.9742 13.1566C93.4888 14.1558 93.9328 15.1896 94.3029 16.2505C95.056 18.4122 95.5003 20.6689 95.6228 22.9541C95.817 26.5564 95.4714 31.8155 91.3943 33.198C90.3575 33.5496 89.2391 33.615 88.152 33.6122C87.0072 33.6261 85.8653 33.4927 84.7546 33.2152C82.8298 32.7026 81.0026 31.4988 80.1825 29.6286C79.9935 29.1967 79.8668 28.7403 79.8061 28.2729C79.7891 28.1448 79.9277 28.0368 80.044 28.0356C80.1067 28.0371 80.1663 28.0626 80.2106 28.1068C80.2549 28.151 80.2805 28.2105 80.2819 28.2729C80.5475 30.2659 82.2125 31.7943 84.0202 32.4814C85.0765 32.8632 86.1863 33.0774 87.3091 33.116C88.4267 33.1723 89.5871 33.1636 90.6814 32.907C91.6555 32.6968 92.5418 32.1943 93.2213 31.467C93.8271 30.7714 94.2788 29.9562 94.5472 29.0746C95.1907 27.1153 95.2582 24.9611 95.1451 22.9189C95.0171 20.6412 94.5633 18.3935 93.7973 16.2439C93.4104 15.1587 92.9436 14.1033 92.4009 13.0866C91.8708 12.0921 91.2821 11.1257 90.8355 10.0892C90.3995 9.13639 90.1598 8.10599 90.1305 7.05908C90.127 6.09222 90.32 5.13467 90.6977 4.24422C91.069 3.35022 91.6257 2.54468 92.3312 1.88048C93.0367 1.21628 93.8751 0.708445 94.7914 0.390323C95.7236 0.0666742 96.7133 -0.0589967 97.697 0.021377C98.6808 0.101751 99.6368 0.386393 100.504 0.857034C101.328 1.32989 102.051 1.96108 102.63 2.71414C103.208 3.4672 103.632 4.32718 103.875 5.24438C103.993 5.69867 104.065 6.16385 104.088 6.63263C104.104 6.93789 103.628 6.93705 103.612 6.63263H103.612Z" fill="#5E50A1"/>
<path d="M102.036 6.79929C101.906 5.91904 101.464 5.11447 100.79 4.53184C100.074 3.93275 99.1549 3.62864 98.2214 3.68143C97.9154 3.6967 97.9162 3.22206 98.2214 3.20683C99.236 3.1612 100.232 3.48913 101.02 4.12826C101.808 4.76738 102.333 5.6731 102.495 6.67313C102.541 6.97192 102.082 7.10073 102.036 6.79929Z" fill="#5E50A1"/>
<path d="M101.036 6.82707C100.964 6.60795 100.981 6.36906 101.085 6.16296C101.189 5.95687 101.371 5.80044 101.591 5.72809L103.85 4.98406C104.07 4.91171 104.309 4.92937 104.516 5.03315C104.723 5.13693 104.879 5.31833 104.952 5.53745C105.025 5.75657 105.007 5.99545 104.903 6.20155C104.799 6.40765 104.617 6.56408 104.397 6.63643L102.138 7.38046C102.029 7.41633 101.914 7.43047 101.8 7.42206C101.686 7.41366 101.574 7.38288 101.472 7.33149C101.37 7.2801 101.279 7.2091 101.204 7.12256C101.129 7.03601 101.072 6.9356 101.036 6.82708V6.82707Z" fill="#5E50A1"/>
<path d="M118.677 17.7895C118.531 17.8202 118.396 17.8914 118.289 17.9948C118.182 18.0982 118.106 18.2296 118.07 18.3741C118.034 18.5185 118.04 18.6701 118.087 18.8115C118.133 18.9529 118.219 19.0783 118.333 19.1734L121.825 22.0666C121.876 22.1097 121.918 22.1623 121.949 22.2214C121.978 22.2811 121.994 22.346 121.996 22.4122L122.214 27.7184C122.218 27.892 122.281 28.0592 122.391 28.1932C122.502 28.3272 122.655 28.4202 122.825 28.4572L122.831 28.4586C122.999 28.4995 123.176 28.4833 123.334 28.4123C123.491 28.3414 123.621 28.2198 123.701 28.0671L124.96 25.7765C125.003 25.701 125.065 25.6385 125.14 25.5955C125.215 25.5526 125.3 25.5308 125.387 25.5325C125.451 25.5328 125.514 25.5463 125.572 25.5721C125.63 25.5979 125.682 25.6354 125.725 25.6823L131.768 32.1139C131.856 32.2073 131.964 32.2781 132.085 32.3202C132.206 32.3623 132.335 32.3744 132.462 32.3556C132.588 32.3368 132.707 32.2882 132.811 32.2136C132.914 32.1391 132.998 32.0409 133.055 31.9273L141.916 14.245C141.983 14.1119 142.011 13.9626 141.997 13.8143C141.983 13.6661 141.927 13.5248 141.835 13.4068C141.744 13.2889 141.622 13.1989 141.481 13.1474C141.341 13.0959 141.189 13.0849 141.043 13.1157L140.756 13.1755L118.677 17.7895L118.677 17.7895ZM118.535 18.9304C118.467 18.8731 118.415 18.7977 118.387 18.7128C118.36 18.6279 118.356 18.5369 118.378 18.4502C118.4 18.3636 118.445 18.2847 118.51 18.2227C118.574 18.1607 118.655 18.1181 118.743 18.0997L140.815 13.4874L141.109 13.4259C141.197 13.4079 141.288 13.4148 141.371 13.4458C141.455 13.4768 141.528 13.5307 141.583 13.6012C141.638 13.6718 141.671 13.7562 141.68 13.8449C141.689 13.9336 141.673 14.023 141.633 14.1029L132.772 31.7852C132.738 31.8535 132.687 31.9125 132.625 31.9572C132.563 32.0019 132.491 32.0309 132.415 32.0419C132.34 32.0529 132.262 32.0455 132.19 32.0203C132.118 31.9951 132.052 31.9528 132 31.8971L125.957 25.4655C125.898 25.4012 125.828 25.3475 125.751 25.3068L141.106 14.1958C141.166 14.153 141.21 14.0906 141.229 14.0192C141.248 13.9478 141.241 13.872 141.21 13.8049C141.179 13.7378 141.126 13.6837 141.059 13.6518C140.992 13.6199 140.916 13.6123 140.845 13.6303C140.827 13.6345 140.81 13.6404 140.793 13.6479L122.149 21.9488C122.113 21.9026 122.072 21.8606 122.026 21.8236L118.535 18.9304V18.9304Z" fill="#CCCCCC"/>
<path d="M118.677 17.7895C118.531 17.8202 118.396 17.8914 118.289 17.9948C118.182 18.0982 118.106 18.2296 118.07 18.3741C118.034 18.5185 118.04 18.6701 118.087 18.8115C118.133 18.9529 118.219 19.0783 118.333 19.1734L121.825 22.0666C121.876 22.1097 121.918 22.1623 121.949 22.2214C121.978 22.2811 121.994 22.346 121.996 22.4122L122.214 27.7184C122.218 27.892 122.281 28.0592 122.391 28.1932C122.502 28.3272 122.655 28.4202 122.825 28.4572L122.831 28.4586C122.999 28.4995 123.176 28.4833 123.334 28.4123C123.491 28.3414 123.621 28.2198 123.701 28.0671L124.96 25.7765C125.003 25.701 125.065 25.6385 125.14 25.5955C125.215 25.5526 125.3 25.5308 125.387 25.5325C125.451 25.5328 125.514 25.5463 125.572 25.5721C125.63 25.5979 125.682 25.6354 125.725 25.6823L131.768 32.1139C131.856 32.2073 131.964 32.2781 132.085 32.3202C132.206 32.3623 132.335 32.3744 132.462 32.3556C132.588 32.3368 132.707 32.2882 132.811 32.2136C132.914 32.1391 132.998 32.0409 133.055 31.9273L141.916 14.245C141.983 14.1119 142.011 13.9626 141.997 13.8143C141.983 13.6661 141.927 13.5248 141.835 13.4068C141.744 13.2889 141.622 13.1989 141.481 13.1474C141.341 13.0959 141.189 13.0849 141.043 13.1157L140.756 13.1755L118.677 17.7895L118.677 17.7895ZM118.535 18.9304C118.467 18.8731 118.415 18.7977 118.387 18.7128C118.36 18.6279 118.356 18.5369 118.378 18.4502C118.4 18.3636 118.445 18.2847 118.51 18.2227C118.574 18.1607 118.655 18.1181 118.743 18.0997L140.815 13.4874L141.109 13.4259C141.197 13.4079 141.288 13.4148 141.371 13.4458C141.455 13.4768 141.528 13.5307 141.583 13.6012C141.638 13.6718 141.671 13.7562 141.68 13.8449C141.689 13.9336 141.673 14.023 141.633 14.1029L132.772 31.7852C132.738 31.8535 132.687 31.9125 132.625 31.9571C132.563 32.0018 132.491 32.0309 132.415 32.0419C132.339 32.0529 132.262 32.0455 132.19 32.0203C132.118 31.9951 132.052 31.9528 132 31.8971L125.957 25.4655C125.898 25.4012 125.828 25.3475 125.751 25.3068C125.64 25.2476 125.517 25.2162 125.391 25.2154C125.373 25.2146 125.355 25.2154 125.337 25.2162L125.336 25.2158C125.201 25.2228 125.07 25.264 124.956 25.3354C124.842 25.4069 124.748 25.5063 124.683 25.6242L123.423 27.9164C123.375 28.0084 123.297 28.0815 123.202 28.1239C123.107 28.1662 123.001 28.1753 122.9 28.1497L122.897 28.149C122.794 28.1275 122.702 28.0719 122.636 27.9914C122.569 27.9109 122.532 27.8102 122.531 27.7058L122.313 22.3997C122.311 22.3437 122.303 22.288 122.289 22.2337L122.289 22.2321C122.276 22.18 122.257 22.1295 122.233 22.0814C122.21 22.0343 122.182 21.9899 122.149 21.9488C122.113 21.9026 122.072 21.8606 122.026 21.8236L118.535 18.9304V18.9304Z" fill="#FBB017"/>
<path d="M122.149 21.9484L140.793 13.6475C140.809 13.64 140.826 13.6341 140.844 13.6299C140.916 13.6119 140.992 13.6195 141.059 13.6514C141.125 13.6833 141.179 13.7374 141.21 13.8045C141.241 13.8716 141.247 13.9474 141.228 14.0188C141.209 14.0902 141.166 14.1526 141.105 14.1954L125.75 25.3064L125.479 25.5029L125.294 25.2466L125.335 25.2154L125.337 25.2158L140.918 13.9388L122.289 22.2317L122.289 22.2333L122.207 22.2684L122.078 21.9795L122.149 21.9484Z" fill="#FBB017"/>
<path d="M98.8567 47.1377C98.6254 47.138 98.4037 47.2297 98.2402 47.3928C98.0766 47.5559 97.9846 47.7771 97.9844 48.0078V51.1718C97.9846 51.4025 98.0766 51.6236 98.2402 51.7868C98.4037 51.9499 98.6254 52.0416 98.8567 52.0419H109.008C109.239 52.0416 109.461 51.9499 109.624 51.7868C109.788 51.6236 109.88 51.4025 109.88 51.1718V48.0078C109.88 47.7771 109.788 47.5559 109.624 47.3928C109.461 47.2297 109.239 47.138 109.008 47.1377H98.8567Z" fill="#493E7E"/>
<path d="M97.6572 31.0878C97.1726 32.489 97.0823 33.9959 97.396 35.4447C98.2027 39.3893 97.9024 44.0526 97.1094 49.0357C97.1094 49.5599 97.4755 49.9849 97.9271 49.9849H110.329C110.78 49.9849 111.146 49.5599 111.146 49.0357V34.244C111.146 29.8729 108.167 26.296 104.441 26.1062C104.338 26.0998 104.233 26.0967 104.128 26.0967C101.221 26.0967 98.7215 28.1581 97.6572 31.0878Z" fill="#5E50A1"/>
<path d="M101.605 50.2853V31.9919C101.605 31.4096 101.837 30.8511 102.25 30.4393C102.663 30.0275 103.223 29.7961 103.807 29.7961C104.391 29.7961 104.951 30.0275 105.364 30.4393C105.776 30.8511 106.008 31.4096 106.008 31.9919V50.2853C106.008 50.5579 105.899 50.8193 105.706 51.0121C105.513 51.2048 105.251 51.3133 104.977 51.3136H102.636C102.363 51.3133 102.101 51.2048 101.908 51.0121C101.714 50.8193 101.606 50.5579 101.605 50.2853Z" fill="#F5C4CB"/>
<path d="M105.376 37.1828L102.048 37.0367C101.775 37.0244 101.518 36.9046 101.333 36.7035C101.149 36.5024 101.052 36.2365 101.063 35.9641L101.297 30.6695C101.312 30.3161 101.397 29.9691 101.546 29.6484C101.695 29.3276 101.907 29.0394 102.168 28.8003C102.429 28.5611 102.735 28.3757 103.068 28.2547C103.402 28.1336 103.756 28.0793 104.11 28.0949C104.464 28.1104 104.812 28.1956 105.133 28.3453C105.454 28.4951 105.743 28.7066 105.982 28.9678C106.221 29.2289 106.406 29.5345 106.527 29.8671C106.647 30.1998 106.701 30.5528 106.685 30.9061L106.451 36.2007C106.439 36.4652 106.326 36.7149 106.134 36.898C105.943 37.0811 105.688 37.1835 105.422 37.1838C105.407 37.1838 105.391 37.1834 105.376 37.1828Z" fill="#5E50A1"/>
<path d="M111.147 40.5717C111.542 40.5717 111.861 39.5447 111.861 38.2778C111.861 37.0109 111.542 35.9839 111.147 35.9839C110.753 35.9839 110.434 37.0109 110.434 38.2778C110.434 39.5447 110.753 40.5717 111.147 40.5717Z" fill="#5E50A1"/>
<path d="M72.0316 66.8329C74.2215 66.8329 75.9968 65.0621 75.9968 62.8779C75.9968 60.6936 74.2215 58.9229 72.0316 58.9229C69.8417 58.9229 68.0664 60.6936 68.0664 62.8779C68.0664 65.0621 69.8417 66.8329 72.0316 66.8329Z" fill="#CCCCCC"/>
<path d="M111.241 66.8335H80.7884C80.4519 66.8335 80.1291 66.7001 79.8912 66.4628C79.6532 66.2254 79.5195 65.9035 79.5195 65.5678C79.5195 65.2322 79.6532 64.9103 79.8912 64.6729C80.1291 64.4356 80.4519 64.3022 80.7884 64.3022H111.241C111.578 64.3022 111.9 64.4356 112.138 64.6729C112.376 64.9103 112.51 65.2322 112.51 65.5678C112.51 65.9035 112.376 66.2254 112.138 66.4628C111.9 66.7001 111.578 66.8335 111.241 66.8335Z" fill="#CCCCCC"/>
<path d="M102.994 61.4541H80.7884C80.4519 61.4541 80.1291 61.3207 79.8912 61.0834C79.6532 60.846 79.5195 60.5241 79.5195 60.1885C79.5195 59.8528 79.6532 59.5309 79.8912 59.2935C80.1291 59.0562 80.4519 58.9229 80.7884 58.9229H102.994C103.33 58.9229 103.653 59.0562 103.891 59.2935C104.129 59.5309 104.262 59.8528 104.262 60.1885C104.262 60.5241 104.129 60.846 103.891 61.0834C103.653 61.3207 103.33 61.4541 102.994 61.4541Z" fill="#CCCCCC"/>
<path d="M72.0316 81.8622C74.2215 81.8622 75.9968 80.0914 75.9968 77.9072C75.9968 75.7229 74.2215 73.9521 72.0316 73.9521C69.8417 73.9521 68.0664 75.7229 68.0664 77.9072C68.0664 80.0914 69.8417 81.8622 72.0316 81.8622Z" fill="#CCCCCC"/>
<path d="M111.241 81.862H80.7884C80.4519 81.862 80.1291 81.7287 79.8912 81.4913C79.6532 81.254 79.5195 80.9321 79.5195 80.5964C79.5195 80.2608 79.6532 79.9388 79.8912 79.7015C80.1291 79.4641 80.4519 79.3308 80.7884 79.3308H111.241C111.578 79.3308 111.9 79.4641 112.138 79.7015C112.376 79.9388 112.51 80.2608 112.51 80.5964C112.51 80.9321 112.376 81.254 112.138 81.4913C111.9 81.7287 111.578 81.862 111.241 81.862Z" fill="#CCCCCC"/>
<path d="M102.994 76.4834H80.7884C80.4519 76.4834 80.1291 76.35 79.8912 76.1127C79.6532 75.8753 79.5195 75.5534 79.5195 75.2178C79.5195 74.8821 79.6532 74.5602 79.8912 74.3228C80.1291 74.0855 80.4519 73.9521 80.7884 73.9521H102.994C103.33 73.9521 103.653 74.0855 103.891 74.3228C104.129 74.5602 104.262 74.8821 104.262 75.2178C104.262 75.5534 104.129 75.8753 103.891 76.1127C103.653 76.35 103.33 76.4834 102.994 76.4834Z" fill="#CCCCCC"/>
<path d="M72.0316 97.0489C74.2215 97.0489 75.9968 95.2782 75.9968 93.0939C75.9968 90.9096 74.2215 89.1389 72.0316 89.1389C69.8417 89.1389 68.0664 90.9096 68.0664 93.0939C68.0664 95.2782 69.8417 97.0489 72.0316 97.0489Z" fill="#CCCCCC"/>
<path d="M111.241 97.0495H80.7884C80.4519 97.0495 80.1291 96.9162 79.8912 96.6788C79.6532 96.4415 79.5195 96.1196 79.5195 95.7839C79.5195 95.4483 79.6532 95.1263 79.8912 94.889C80.1291 94.6516 80.4519 94.5183 80.7884 94.5183H111.241C111.578 94.5183 111.9 94.6516 112.138 94.889C112.376 95.1263 112.51 95.4483 112.51 95.7839C112.51 96.1196 112.376 96.4415 112.138 96.6788C111.9 96.9162 111.578 97.0495 111.241 97.0495Z" fill="#CCCCCC"/>
<path d="M102.994 91.6701H80.7884C80.4519 91.6701 80.1291 91.5368 79.8912 91.2994C79.6532 91.0621 79.5195 90.7402 79.5195 90.4045C79.5195 90.0689 79.6532 89.7469 79.8912 89.5096C80.1291 89.2723 80.4519 89.1389 80.7884 89.1389H102.994C103.33 89.1389 103.653 89.2723 103.891 89.5096C104.129 89.7469 104.262 90.0689 104.262 90.4045C104.262 90.7402 104.129 91.0621 103.891 91.2994C103.653 91.5368 103.33 91.6701 102.994 91.6701Z" fill="#CCCCCC"/>
<path d="M121.85 104.168H58.7237C58.0088 104.167 57.3235 103.884 56.818 103.38C56.3125 102.875 56.0281 102.192 56.0273 101.479V54.4934C56.0281 53.7803 56.3125 53.0967 56.818 52.5925C57.3235 52.0884 58.0088 51.8048 58.7237 51.804H121.85C122.565 51.8048 123.25 52.0884 123.756 52.5925C124.261 53.0967 124.545 53.7803 124.546 54.4934V101.479C124.545 102.192 124.261 102.875 123.756 103.38C123.25 103.884 122.565 104.167 121.85 104.168ZM58.7237 52.1204C58.0929 52.1211 57.4882 52.3713 57.0422 52.8162C56.5962 53.261 56.3453 53.8642 56.3446 54.4934V101.479C56.3453 102.108 56.5962 102.711 57.0422 103.156C57.4882 103.601 58.0929 103.851 58.7237 103.852H121.85C122.481 103.851 123.085 103.601 123.531 103.156C123.977 102.711 124.228 102.108 124.229 101.479V54.4934C124.228 53.8642 123.977 53.261 123.531 52.8162C123.085 52.3713 122.481 52.1211 121.85 52.1204H58.7237Z" fill="#3F3D56"/>
<path d="M57.1399 61.4545C62.0453 61.4545 66.0219 57.4881 66.0219 52.5953C66.0219 47.7025 62.0453 43.7361 57.1399 43.7361C52.2344 43.7361 48.2578 47.7025 48.2578 52.5953C48.2578 57.4881 52.2344 61.4545 57.1399 61.4545Z" fill="#FBB017"/>
<path d="M56.261 55.975C56.0611 55.9754 55.8666 55.911 55.7067 55.7914L55.6968 55.784L53.6094 54.1899C53.5128 54.1161 53.4316 54.0239 53.3707 53.9188C53.3097 53.8136 53.2701 53.6975 53.2541 53.5771C53.2381 53.4567 53.2461 53.3343 53.2775 53.2169C53.309 53.0996 53.3633 52.9896 53.4373 52.8931C53.5114 52.7967 53.6038 52.7158 53.7092 52.655C53.8146 52.5942 53.931 52.5547 54.0518 52.5387C54.1725 52.5228 54.2952 52.5307 54.4128 52.5621C54.5305 52.5935 54.6408 52.6476 54.7375 52.7215L56.0895 53.7555L59.2846 49.5995C59.3587 49.5031 59.4511 49.4222 59.5565 49.3614C59.662 49.3006 59.7784 49.2612 59.8991 49.2453C60.0198 49.2294 60.1425 49.2373 60.2602 49.2687C60.3778 49.3001 60.4881 49.3543 60.5848 49.4283L60.5649 49.4552L60.5853 49.4287C60.7802 49.5781 60.9078 49.7986 60.9399 50.0417C60.9721 50.2848 60.9063 50.5307 60.7569 50.7255L56.9988 55.6141C56.9118 55.7267 56.8001 55.8179 56.6721 55.8805C56.5442 55.9431 56.4035 55.9754 56.261 55.975Z" fill="white"/>
<path d="M57.0706 105.566C56.9144 105.566 56.76 105.533 56.6177 105.469H56.6177L39.8838 97.9816C39.6104 97.8595 39.3637 97.6848 39.1579 97.4675C38.9522 97.2503 38.7913 96.9947 38.6846 96.7154C38.5779 96.4361 38.5275 96.1386 38.5361 95.8399C38.5447 95.5411 38.6123 95.247 38.7349 94.9743C38.8576 94.7016 39.0329 94.4557 39.2509 94.2507C39.4688 94.0456 39.7252 93.8853 40.0053 93.7791C40.2854 93.6729 40.5837 93.6228 40.8832 93.6316C41.1827 93.6404 41.4775 93.708 41.7508 93.8306L58.4847 101.318C58.6178 101.378 58.7377 101.463 58.8378 101.568C58.9379 101.674 59.0161 101.799 59.068 101.935C59.1198 102.07 59.1443 102.215 59.1401 102.361C59.1359 102.506 59.103 102.649 59.0433 102.782L58.0852 104.912C57.9971 105.107 57.8546 105.272 57.6746 105.388C57.4946 105.504 57.2849 105.566 57.0706 105.566Z" fill="#F5C4CB"/>
<path d="M60.5884 126H0.158608C0.116543 126 0.0762 125.983 0.0464552 125.953C0.0167103 125.924 0 125.884 0 125.842C0 125.8 0.0167103 125.759 0.0464552 125.73C0.0762 125.7 0.116543 125.683 0.158608 125.683H60.5884C60.6304 125.683 60.6708 125.7 60.7005 125.73C60.7303 125.759 60.747 125.8 60.747 125.842C60.747 125.884 60.7303 125.924 60.7005 125.953C60.6708 125.983 60.6304 126 60.5884 126Z" fill="#3F3D56"/>
</g>
<defs>
<clipPath id="clip0_234_287">
<rect width="142" height="126" fill="white"/>
</clipPath>
</defs>
</svg>
