<svg width="20" height="20" viewBox="0 0 20 20" fill="none" xmlns="http://www.w3.org/2000/svg">
<g clip-path="url(#clip0_229_1574)">
<path d="M4.4442 10.7804L13.3445 19.6805C13.5503 19.8865 13.8251 20 14.1181 20C14.4111 20 14.6859 19.8865 14.8918 19.6805L15.5472 19.0252C15.9737 18.5982 15.9737 17.9042 15.5472 17.4779L8.07344 10.0041L15.5555 2.52209C15.7613 2.31608 15.875 2.04145 15.875 1.7486C15.875 1.45543 15.7613 1.1808 15.5555 0.974625L14.9001 0.319508C14.694 0.113495 14.4194 -1.27252e-07 14.1264 -1.52868e-07C13.8334 -1.78483e-07 13.5586 0.113495 13.3527 0.319507L4.4442 9.22773C4.23786 9.43439 4.12453 9.71033 4.12518 10.0037C4.12453 10.2981 4.23786 10.5739 4.4442 10.7804Z" fill="#DDDDDE"/>
</g>
<defs>
<clipPath id="clip0_229_1574">
<rect width="20" height="20" fill="white" transform="translate(20 20) rotate(-180)"/>
</clipPath>
</defs>
</svg>
