<svg width="16" height="16" viewBox="0 0 16 16" fill="none" xmlns="http://www.w3.org/2000/svg">
<path d="M14.6669 11.28V13.28C14.6677 13.4657 14.6297 13.6494 14.5553 13.8195C14.4809 13.9897 14.3718 14.1424 14.235 14.2679C14.0982 14.3934 13.9367 14.489 13.7608 14.5485C13.5849 14.6079 13.3985 14.63 13.2136 14.6133C11.1622 14.3904 9.19161 13.6894 7.46028 12.5666C5.8495 11.5431 4.48384 10.1774 3.46028 8.56665C2.3336 6.82745 1.63244 4.84731 1.41361 2.78665C1.39695 2.60229 1.41886 2.41649 1.47795 2.24107C1.53703 2.06564 1.63199 1.90444 1.75679 1.76773C1.88159 1.63102 2.03348 1.52179 2.20281 1.447C2.37213 1.37221 2.55517 1.33349 2.74028 1.33332H4.74028C5.06382 1.33013 5.37748 1.4447 5.62279 1.65567C5.8681 1.86664 6.02833 2.15961 6.07361 2.47998C6.15803 3.12003 6.31458 3.74847 6.54028 4.35332C6.62998 4.59193 6.64939 4.85126 6.59622 5.10057C6.54305 5.34988 6.41952 5.57872 6.24028 5.75998L5.39361 6.60665C6.34265 8.27568 7.72458 9.65761 9.39361 10.6066L10.2403 9.75998C10.4215 9.58074 10.6504 9.45722 10.8997 9.40405C11.149 9.35087 11.4083 9.37029 11.6469 9.45998C12.2518 9.68568 12.8802 9.84223 13.5203 9.92665C13.8441 9.97234 14.1399 10.1355 14.3513 10.385C14.5627 10.6345 14.6751 10.953 14.6669 11.28Z" stroke="#9EA0A5" stroke-width="2" stroke-linecap="round" stroke-linejoin="round"/>
</svg>
